<svg xmlns="http://www.w3.org/2000/svg" width="1200" height="760" viewBox="0 0 1200 760">
<rect width="100%" height="100%" fill="white"/>
<text x="600" y="52" text-anchor="middle" font-size="28" font-family="Arial, Helvetica, sans-serif" font-weight="bold">
Category Distribution of Annotated Failure Cases
</text>
<line x1="320.0" y1="120" x2="320.0" y2="640" stroke="#e6e6e6" stroke-width="1"/>
<text x="320.0" y="676" text-anchor="middle" font-size="16" font-family="Arial, Helvetica, sans-serif" fill="#444444">0</text>
<line x1="493.9" y1="120" x2="493.9" y2="640" stroke="#e6e6e6" stroke-width="1"/>
<text x="493.9" y="676" text-anchor="middle" font-size="16" font-family="Arial, Helvetica, sans-serif" fill="#444444">5</text>
<line x1="667.8" y1="120" x2="667.8" y2="640" stroke="#e6e6e6" stroke-width="1"/>
<text x="667.8" y="676" text-anchor="middle" font-size="16" font-family="Arial, Helvetica, sans-serif" fill="#444444">10</text>
<line x1="841.7" y1="120" x2="841.7" y2="640" stroke="#e6e6e6" stroke-width="1"/>
<text x="841.7" y="676" text-anchor="middle" font-size="16" font-family="Arial, Helvetica, sans-serif" fill="#444444">15</text>
<line x1="1015.7" y1="120" x2="1015.7" y2="640" stroke="#e6e6e6" stroke-width="1"/>
<text x="1015.7" y="676" text-anchor="middle" font-size="16" font-family="Arial, Helvetica, sans-serif" fill="#444444">20</text>
<line x1="320" y1="120" x2="320" y2="640" stroke="#444444" stroke-width="1.5"/>
<line x1="320" y1="640" x2="1120" y2="640" stroke="#444444" stroke-width="1.5"/>
<text x="304" y="170.0" text-anchor="end" font-size="18" font-family="Arial, Helvetica, sans-serif" fill="black">Explicit Deictics</text>
<rect x="320" y="120.0" width="487.0" height="88.0" rx="6" ry="6" fill="#4C78A8"/>
<text x="819.0" y="170.0" text-anchor="start" font-size="18" font-family="Arial, Helvetica, sans-serif" fill="black">14 (26.9%)</text>
<text x="304" y="278.0" text-anchor="end" font-size="18" font-family="Arial, Helvetica, sans-serif" fill="black">Attribute-as-Name</text>
<rect x="320" y="228.0" width="69.6" height="88.0" rx="6" ry="6" fill="#F58518"/>
<text x="401.6" y="278.0" text-anchor="start" font-size="18" font-family="Arial, Helvetica, sans-serif" fill="black">2 (3.8%)</text>
<text x="304" y="386.0" text-anchor="end" font-size="18" font-family="Arial, Helvetica, sans-serif" fill="black">Spatial Dependency</text>
<rect x="320" y="336.0" width="0.0" height="88.0" rx="6" ry="6" fill="#54A24B"/>
<text x="332.0" y="386.0" text-anchor="start" font-size="18" font-family="Arial, Helvetica, sans-serif" fill="black">0 (0.0%)</text>
<text x="304" y="494.0" text-anchor="end" font-size="18" font-family="Arial, Helvetica, sans-serif" fill="black">Category-level Vagueness</text>
<rect x="320" y="444.0" width="800.0" height="88.0" rx="6" ry="6" fill="#E45756"/>
<text x="1132.0" y="494.0" text-anchor="start" font-size="18" font-family="Arial, Helvetica, sans-serif" fill="black">23 (44.2%)</text>
<text x="304" y="602.0" text-anchor="end" font-size="18" font-family="Arial, Helvetica, sans-serif" fill="black">Visual Recognition Task Offloading</text>
<rect x="320" y="552.0" width="452.2" height="88.0" rx="6" ry="6" fill="#72B7B2"/>
<text x="784.2" y="602.0" text-anchor="start" font-size="18" font-family="Arial, Helvetica, sans-serif" fill="black">13 (25.0%)</text>
<text x="720.0" y="732" text-anchor="middle" font-size="18" font-family="Arial, Helvetica, sans-serif" fill="black">Number of Cases</text>
</svg>